<mxfile host="app.diagrams.net" modified="2021-04-28T09:35:55.048Z" agent="5.0 (Windows NT 10.0; Win64; x64) AppleWebKit/537.36 (KHTML, like Gecko) Chrome/90.0.4430.93 Safari/537.36" etag="qnL1QOqf4KoyDBtHw9Sx" version="14.6.6" type="github">
  <diagram id="UdY0x7wPCIjcQhffvSmy" name="Page-1">
    <mxGraphModel dx="2249" dy="706" grid="1" gridSize="10" guides="1" tooltips="1" connect="1" arrows="1" fold="1" page="1" pageScale="1" pageWidth="827" pageHeight="1169" math="0" shadow="0">
      <root>
        <mxCell id="0" />
        <mxCell id="1" parent="0" />
        <mxCell id="Z8Ldc2mOen79I4VbwD4R-3" style="edgeStyle=orthogonalEdgeStyle;rounded=0;orthogonalLoop=1;jettySize=auto;html=1;exitX=0.5;exitY=1;exitDx=0;exitDy=0;" edge="1" parent="1" source="Z8Ldc2mOen79I4VbwD4R-1" target="Z8Ldc2mOen79I4VbwD4R-2">
          <mxGeometry relative="1" as="geometry" />
        </mxCell>
        <mxCell id="Z8Ldc2mOen79I4VbwD4R-1" value="schuppe上线消息" style="rounded=0;whiteSpace=wrap;html=1;" vertex="1" parent="1">
          <mxGeometry x="40" y="150" width="120" height="60" as="geometry" />
        </mxCell>
        <mxCell id="Z8Ldc2mOen79I4VbwD4R-5" style="edgeStyle=orthogonalEdgeStyle;rounded=0;orthogonalLoop=1;jettySize=auto;html=1;exitX=0.5;exitY=1;exitDx=0;exitDy=0;entryX=0.5;entryY=0;entryDx=0;entryDy=0;" edge="1" parent="1" source="Z8Ldc2mOen79I4VbwD4R-2" target="Z8Ldc2mOen79I4VbwD4R-4">
          <mxGeometry relative="1" as="geometry" />
        </mxCell>
        <mxCell id="Z8Ldc2mOen79I4VbwD4R-2" value="cadmus-listener&lt;br&gt;&lt;br&gt;PgcSchuppeApprovedMsgListener" style="rounded=0;whiteSpace=wrap;html=1;" vertex="1" parent="1">
          <mxGeometry x="-20" y="260" width="240" height="70" as="geometry" />
        </mxCell>
        <mxCell id="Z8Ldc2mOen79I4VbwD4R-8" style="edgeStyle=orthogonalEdgeStyle;rounded=0;orthogonalLoop=1;jettySize=auto;html=1;exitX=1;exitY=0.5;exitDx=0;exitDy=0;entryX=0;entryY=0.5;entryDx=0;entryDy=0;shape=flexArrow;" edge="1" parent="1" source="Z8Ldc2mOen79I4VbwD4R-14" target="Z8Ldc2mOen79I4VbwD4R-6">
          <mxGeometry relative="1" as="geometry" />
        </mxCell>
        <mxCell id="Z8Ldc2mOen79I4VbwD4R-15" style="edgeStyle=orthogonalEdgeStyle;rounded=0;orthogonalLoop=1;jettySize=auto;html=1;exitX=0.5;exitY=1;exitDx=0;exitDy=0;" edge="1" parent="1" source="Z8Ldc2mOen79I4VbwD4R-4" target="Z8Ldc2mOen79I4VbwD4R-14">
          <mxGeometry relative="1" as="geometry" />
        </mxCell>
        <mxCell id="Z8Ldc2mOen79I4VbwD4R-4" value="数据落盘&lt;br&gt;pgc_status_record" style="rounded=0;whiteSpace=wrap;html=1;" vertex="1" parent="1">
          <mxGeometry x="40" y="360" width="120" height="50" as="geometry" />
        </mxCell>
        <mxCell id="Z8Ldc2mOen79I4VbwD4R-13" style="edgeStyle=orthogonalEdgeStyle;rounded=0;orthogonalLoop=1;jettySize=auto;html=1;exitX=0.5;exitY=1;exitDx=0;exitDy=0;" edge="1" parent="1" source="Z8Ldc2mOen79I4VbwD4R-6" target="Z8Ldc2mOen79I4VbwD4R-11">
          <mxGeometry relative="1" as="geometry" />
        </mxCell>
        <mxCell id="Z8Ldc2mOen79I4VbwD4R-6" value="cadmus-listener&lt;br&gt;&lt;br&gt;PgcApprovedMsgListener&lt;br&gt;PgcDisapproveMsgListener" style="rounded=0;whiteSpace=wrap;html=1;" vertex="1" parent="1">
          <mxGeometry x="390" y="120" width="240" height="70" as="geometry" />
        </mxCell>
        <mxCell id="Z8Ldc2mOen79I4VbwD4R-9" value="笔记上下线消息" style="text;html=1;strokeColor=none;fillColor=none;align=center;verticalAlign=middle;whiteSpace=wrap;rounded=0;" vertex="1" parent="1">
          <mxGeometry x="280" y="130" width="100" height="10" as="geometry" />
        </mxCell>
        <mxCell id="Z8Ldc2mOen79I4VbwD4R-10" style="edgeStyle=orthogonalEdgeStyle;rounded=0;orthogonalLoop=1;jettySize=auto;html=1;exitX=0.5;exitY=1;exitDx=0;exitDy=0;" edge="1" parent="1" source="Z8Ldc2mOen79I4VbwD4R-11" target="Z8Ldc2mOen79I4VbwD4R-12">
          <mxGeometry relative="1" as="geometry" />
        </mxCell>
        <mxCell id="Z8Ldc2mOen79I4VbwD4R-11" value="处理相关订阅的逻辑&lt;br&gt;插入&lt;br&gt;USER_PGC_FEED相关记录" style="rounded=0;whiteSpace=wrap;html=1;" vertex="1" parent="1">
          <mxGeometry x="445" y="240" width="130" height="60" as="geometry" />
        </mxCell>
        <mxCell id="Z8Ldc2mOen79I4VbwD4R-12" value="发送相关用户消息&lt;br&gt;订阅红点" style="rounded=0;whiteSpace=wrap;html=1;" vertex="1" parent="1">
          <mxGeometry x="445" y="330" width="130" height="60" as="geometry" />
        </mxCell>
        <mxCell id="Z8Ldc2mOen79I4VbwD4R-17" style="edgeStyle=orthogonalEdgeStyle;rounded=0;orthogonalLoop=1;jettySize=auto;html=1;exitX=1;exitY=0.5;exitDx=0;exitDy=0;shape=flexArrow;" edge="1" parent="1" source="Z8Ldc2mOen79I4VbwD4R-14" target="Z8Ldc2mOen79I4VbwD4R-16">
          <mxGeometry relative="1" as="geometry" />
        </mxCell>
        <mxCell id="Z8Ldc2mOen79I4VbwD4R-14" value="发送不同维度的数据消息" style="rounded=0;whiteSpace=wrap;html=1;" vertex="1" parent="1">
          <mxGeometry x="40" y="460" width="120" height="60" as="geometry" />
        </mxCell>
        <mxCell id="Z8Ldc2mOen79I4VbwD4R-16" value="cadmus-listener&lt;br&gt;&lt;br&gt;PgcUserMapMsgListener" style="rounded=0;whiteSpace=wrap;html=1;" vertex="1" parent="1">
          <mxGeometry x="390" y="455" width="240" height="70" as="geometry" />
        </mxCell>
      </root>
    </mxGraphModel>
  </diagram>
</mxfile>
